<svg width="29" height="26" viewBox="0 0 29 26" fill="none" xmlns="http://www.w3.org/2000/svg">
<path d="M14.5 11.6667V19.6667M10.45 15.6667H18.55M28 22.3333C28 23.0406 27.7155 23.7189 27.2092 24.219C26.7028 24.719 26.0161 25 25.3 25H3.7C2.98392 25 2.29716 24.719 1.79081 24.219C1.28446 23.7189 1 23.0406 1 22.3333V3.66667C1 2.95942 1.28446 2.28115 1.79081 1.78105C2.29716 1.28095 2.98392 1 3.7 1H10.45L13.15 5H25.3C26.0161 5 26.7028 5.28095 27.2092 5.78105C27.7155 6.28115 28 6.95942 28 7.66667V22.3333Z" stroke="#BABABA" stroke-width="2" stroke-linecap="round" stroke-linejoin="round"/>
</svg>
