<svg width="65" height="53" viewBox="0 0 65 53" fill="none" xmlns="http://www.w3.org/2000/svg">
<path d="M63 45.909C63 47.3798 62.4157 48.7903 61.3758 49.8303C60.3358 50.8702 58.9253 51.4545 57.4545 51.4545H7.54545C6.07471 51.4545 4.6642 50.8702 3.62423 49.8303C2.58425 48.7903 2 47.3798 2 45.909V15.409C2 13.9383 2.58425 12.5278 3.62423 11.4878C4.6642 10.4478 6.07471 9.86359 7.54545 9.86359H18.6364L24.1818 1.54541H40.8182L46.3636 9.86359H57.4545C58.9253 9.86359 60.3358 10.4478 61.3758 11.4878C62.4157 12.5278 63 13.9383 63 15.409V45.909Z" stroke="white" stroke-width="3" stroke-linecap="round" stroke-linejoin="round"/>
<path d="M32.5 40.3636C38.6253 40.3636 43.5909 35.398 43.5909 29.2727C43.5909 23.1473 38.6253 18.1818 32.5 18.1818C26.3747 18.1818 21.4091 23.1473 21.4091 29.2727C21.4091 35.398 26.3747 40.3636 32.5 40.3636Z" stroke="white" stroke-width="3" stroke-linecap="round" stroke-linejoin="round"/>
</svg>
