<svg width="20" height="20" viewBox="0 0 20 20" fill="none" xmlns="http://www.w3.org/2000/svg">
<path d="M11.8839 11.5491C11.6675 11.7761 11.4066 11.9581 11.1167 12.0844C10.8268 12.2107 10.5139 12.2786 10.1965 12.2841C9.87919 12.2896 9.56398 12.2325 9.2697 12.1163C8.97542 12.0001 8.70809 11.8271 8.48367 11.6077C8.25924 11.3883 8.08232 11.127 7.96346 10.8393C7.84459 10.5516 7.78621 10.2435 7.79181 9.93326C7.79741 9.62304 7.86687 9.31709 7.99604 9.03368C8.12522 8.75027 8.31146 8.4952 8.54366 8.28368M1.54803 1.44482L18.8795 18.3879M14.8933 14.491C13.5466 15.4945 11.9068 16.0505 10.2138 16.0775C4.69922 16.0775 1.54803 9.91638 1.54803 9.91638C2.52797 8.13111 3.88711 6.57136 5.53428 5.34174L14.8933 14.491ZM8.55942 3.94008C9.10168 3.816 9.65687 3.75397 10.2138 3.75525C15.7284 3.75525 18.8795 9.91638 18.8795 9.91638C18.4013 10.791 17.831 11.6143 17.1779 12.3731L8.55942 3.94008Z" stroke="#B0B0B0" stroke-width="2" stroke-linecap="round" stroke-linejoin="round"/>
</svg>
