<svg width="28" height="28" viewBox="0 0 28 28" fill="none" xmlns="http://www.w3.org/2000/svg">
<g clip-path="url(#clip0_37_53)">
<path d="M14 26.8333C21.0875 26.8333 26.8334 21.0875 26.8334 14C26.8334 6.91246 21.0875 1.16663 14 1.16663M14 26.8333C6.91252 26.8333 1.16669 21.0875 1.16669 14C1.16669 6.91246 6.91252 1.16663 14 1.16663M14 26.8333C17.5 26.8333 18.6667 21 18.6667 14C18.6667 6.99996 17.5 1.16663 14 1.16663M14 26.8333C10.5 26.8333 9.33335 21 9.33335 14C9.33335 6.99996 10.5 1.16663 14 1.16663M2.33335 18.6666H25.6667M2.33335 9.33329H25.6667" stroke="#F8F8F8" stroke-width="2"/>
</g>
<defs>
<clipPath id="clip0_37_53">
<rect width="28" height="28" fill="white"/>
</clipPath>
</defs>
</svg>
