<svg width="118" height="93" viewBox="0 0 118 93" fill="none" xmlns="http://www.w3.org/2000/svg">
<path d="M79.3637 89.2917V79.1099C79.3637 73.7091 77.2183 68.5295 73.3993 64.7106C69.5804 60.8917 64.4008 58.7462 59.0001 58.7462H23.3637C17.9629 58.7462 12.7833 60.8917 8.96438 64.7106C5.14545 68.5295 3 73.7091 3 79.1099V89.2917" stroke="#F58220" stroke-width="6" stroke-linecap="round" stroke-linejoin="round"/>
<path d="M41.1818 43.7273C52.4283 43.7273 61.5454 34.6102 61.5454 23.3637C61.5454 12.1171 52.4283 3 41.1818 3C29.9352 3 20.8181 12.1171 20.8181 23.3637C20.8181 34.6102 29.9352 43.7273 41.1818 43.7273Z" stroke="#F58220" stroke-width="6" stroke-linecap="round" stroke-linejoin="round"/>
<path d="M84.4546 43.7273L94.6364 53.9091L115 33.5455" stroke="#F58220" stroke-width="6" stroke-linecap="round" stroke-linejoin="round"/>
</svg>
