<svg width="96" height="96" viewBox="0 0 96 96" fill="none" xmlns="http://www.w3.org/2000/svg">
<path d="M48 76L40 88L28 84L26 70L12 68L8 56L20 48L8 40L12 28L26 26L28 12L40 8L48 20L56 8L68 12L70 26L84 28L88 40L76 48L88 56L84 68L70 70L68 84L56 88L48 76ZM48 64C52.2435 64 56.3131 62.3143 59.3137 59.3137C62.3143 56.3131 64 52.2435 64 48C64 43.7565 62.3143 39.6869 59.3137 36.6863C56.3131 33.6857 52.2435 32 48 32C43.7565 32 39.6869 33.6857 36.6863 36.6863C33.6857 39.6869 32 43.7565 32 48C32 52.2435 33.6857 56.3131 36.6863 59.3137C39.6869 62.3143 43.7565 64 48 64Z" stroke="#F58220" stroke-width="6" stroke-linecap="round" stroke-linejoin="round"/>
</svg>
