<svg width="96" height="87" viewBox="0 0 96 87" fill="none" xmlns="http://www.w3.org/2000/svg">
<path d="M3 3.375H30C34.7739 3.375 39.3523 5.25386 42.7279 8.59826C46.1036 11.9427 48 16.4786 48 21.2083V83.625C48 80.0777 46.5777 76.6757 44.0459 74.1674C41.5142 71.6591 38.0804 70.25 34.5 70.25H3V3.375Z" stroke="#F58220" stroke-width="6" stroke-linecap="round" stroke-linejoin="round"/>
<path d="M93 3.375H66C61.2261 3.375 56.6477 5.25386 53.2721 8.59826C49.8964 11.9427 48 16.4786 48 21.2083V83.625C48 80.0777 49.4223 76.6757 51.9541 74.1674C54.4858 71.6592 57.9196 70.25 61.5 70.25H93V3.375Z" stroke="#F58220" stroke-width="6" stroke-linecap="round" stroke-linejoin="round"/>
</svg>
