<svg width="157" height="105" viewBox="0 0 157 105" fill="none" xmlns="http://www.w3.org/2000/svg">
<path d="M97.8462 70C97.8462 65.1656 84.1349 61.25 67.2212 61.25M97.8462 70C97.8462 74.8344 84.1349 78.75 67.2212 78.75C50.3074 78.75 36.5962 74.8344 36.5962 70M97.8462 70V91.5994C97.8462 96.5825 84.1349 100.625 67.2212 100.625C50.3074 100.625 36.5962 96.5869 36.5962 91.5994V70M97.8462 70C114.576 70 128.471 65.6819 128.471 61.25V17.5M67.2212 61.25C50.3074 61.25 36.5962 65.1656 36.5962 70M67.2212 61.25C47.8924 61.25 32.2212 56.9319 32.2212 52.5V30.625M67.2212 21.875C47.8924 21.875 32.2212 25.7906 32.2212 30.625M32.2212 30.625C32.2212 35.4594 47.8924 39.375 67.2212 39.375C67.2212 43.8069 81.4531 48.125 98.1831 48.125C114.909 48.125 128.471 43.8069 128.471 39.375M128.471 17.5C128.471 12.6656 114.909 8.75 98.1831 8.75C81.4531 8.75 67.8949 12.6656 67.8949 17.5M128.471 17.5C128.471 22.3344 114.909 26.25 98.1831 26.25C81.4574 26.25 67.8949 22.3344 67.8949 17.5M67.8949 17.5V61.9763" stroke="#F58220" stroke-width="6"/>
</svg>
