<svg width="93" height="101" viewBox="0 0 93 101" fill="none" xmlns="http://www.w3.org/2000/svg">
<path d="M68.454 38.0463L25.3616 13.7361" stroke="#F58220" stroke-width="6" stroke-linecap="round" stroke-linejoin="round"/>
<path d="M90 68.961V31.4886C89.9983 29.8458 89.555 28.2323 88.7146 26.81C87.8742 25.3877 86.6663 24.2066 85.212 23.3852L51.6956 4.64907C50.2399 3.82685 48.5885 3.39398 46.9076 3.39398C45.2266 3.39398 43.5753 3.82685 42.1195 4.64907L8.60323 23.3852C7.14892 24.2066 5.94098 25.3877 5.10059 26.81C4.2602 28.2323 3.81691 29.8458 3.81519 31.4886V68.961C3.81691 70.6038 4.2602 72.2173 5.10059 73.6396C5.94098 75.0619 7.14892 76.243 8.60323 77.0644L42.1195 95.8005C43.5753 96.6228 45.2266 97.0556 46.9076 97.0556C48.5885 97.0556 50.2399 96.6228 51.6956 95.8005L85.212 77.0644C86.6663 76.243 87.8742 75.0619 88.7146 73.6396C89.555 72.2173 89.9983 70.6038 90 68.961Z" stroke="#F58220" stroke-width="6" stroke-linecap="round" stroke-linejoin="round"/>
<path d="M5.10791 26.6173L46.9075 50.2717L88.7072 26.6173" stroke="#F58220" stroke-width="6" stroke-linecap="round" stroke-linejoin="round"/>
<path d="M46.9075 97.44V50.2249" stroke="#F58220" stroke-width="6" stroke-linecap="round" stroke-linejoin="round"/>
</svg>
